if (_typeface_js && _typeface_js.loadFace) _typeface_js.loadFace({"glyphs":{"0":{"ha":867,"x_min":35,"x_max":832,"o":"m 433 1226 q 633 1173 542 1226 q 779 1028 725 1119 q 832 828 832 935 l 832 389 q 778 189 832 281 q 633 44 725 97 q 433 -10 542 -10 q 233 44 325 -10 q 89 189 142 97 q 35 389 35 281 l 35 828 q 88 1027 35 935 q 233 1174 142 1119 q 433 1226 326 1226 m 672 828 q 654 919 672 875 q 601 997 636 963 q 524 1049 568 1031 q 433 1067 481 1067 q 342 1049 386 1067 q 265 997 299 1031 q 213 919 231 963 q 194 828 194 875 l 194 389 q 265 221 194 289 q 433 150 333 150 q 601 221 533 150 q 672 389 672 289 l 672 828 z "},"1":{"ha":392,"x_min":18,"x_max":340,"o":"m 340 0 l 174 0 l 174 1050 l 18 1050 l 18 1215 l 340 1215 l 340 0 z "},"2":{"ha":914,"x_min":49,"x_max":871,"o":"m 871 1050 q 793 818 867 925 q 723 727 767 778 q 579 568 679 676 l 556 543 q 375 344 438 417 q 271 215 313 272 q 242 165 254 190 l 871 165 l 871 0 l 50 0 l 50 13 q 49 36 49 18 q 69 172 49 101 q 136 310 90 243 q 239 439 179 371 q 432 651 299 507 q 657 911 611 846 q 704 1050 700 975 l 446 1050 q 350 1032 390 1047 q 278 985 310 1017 q 208 819 208 915 l 49 819 q 102 1018 49 928 q 249 1163 156 1108 q 447 1215 342 1215 l 871 1215 l 871 1050 z "},"3":{"ha":893,"x_min":33,"x_max":857,"o":"m 857 1218 l 857 1053 q 671 711 847 861 l 622 672 q 596 651 615 665 l 575 636 q 706 492 665 540 q 779 397 746 444 q 857 165 851 290 l 857 0 l 432 0 q 233 53 325 0 q 88 199 142 106 q 33 397 33 289 l 193 397 q 264 231 193 299 q 431 165 324 169 l 690 165 q 658 279 686 232 q 572 393 631 326 l 478 497 l 414 567 l 349 636 q 482 756 399 683 q 589 851 556 818 q 642 914 622 883 q 690 1053 683 974 l 472 1053 l 431 1051 q 259 984 325 1049 q 193 821 193 919 l 33 821 q 60 963 33 894 q 138 1088 88 1032 q 269 1184 193 1150 q 432 1218 346 1218 l 857 1218 z "},"4":{"ha":888,"x_min":47,"x_max":842,"o":"m 842 181 l 692 181 l 692 -278 l 525 -278 l 525 181 l 47 181 l 47 746 q 112 985 47 874 q 286 1161 176 1096 q 525 1225 396 1225 l 525 1057 q 371 1015 443 1057 q 257 901 299 972 q 214 746 214 829 l 214 347 l 525 347 l 525 701 l 692 701 l 692 347 l 842 347 l 842 181 z "},"5":{"ha":814,"x_min":31,"x_max":775,"o":"m 775 601 l 775 392 q 774 371 775 375 l 774 361 q 772 356 772 360 l 772 351 q 769 336 772 347 l 769 332 l 768 326 l 767 317 l 765 313 l 765 311 l 764 307 q 763 303 764 304 l 763 297 q 760 288 760 289 q 757 279 757 285 l 753 269 l 750 260 l 749 256 q 747 251 747 254 l 744 247 l 743 242 l 731 217 q 728 213 731 215 l 726 207 l 724 203 q 721 199 724 201 l 719 194 l 713 186 q 708 179 713 183 l 700 167 q 697 163 700 165 l 689 151 l 686 149 l 675 135 l 672 132 l 668 126 l 661 121 q 622 85 647 106 l 618 82 l 606 72 l 603 71 l 590 63 l 583 58 l 574 53 l 569 50 l 560 44 l 549 39 l 544 38 l 513 24 l 504 21 l 494 18 l 481 14 l 475 13 l 471 11 q 467 10 468 11 l 446 6 q 438 4 439 6 l 413 1 l 408 1 q 376 0 401 0 l 117 0 l 117 169 l 374 169 q 544 231 483 169 q 615 399 615 299 l 615 476 l 190 604 l 31 647 l 31 1217 l 754 1217 l 754 1056 l 192 1056 l 192 772 l 775 601 z "},"6":{"ha":822,"x_min":35,"x_max":788,"o":"m 788 297 l 788 0 l 35 0 l 35 606 q 118 916 35 772 q 344 1143 201 1060 q 656 1226 489 1226 l 682 1226 l 682 1061 l 656 1061 q 481 1026 565 1061 q 333 928 397 992 q 235 780 269 864 q 200 606 200 696 l 200 165 l 626 165 l 626 297 q 557 467 626 397 q 480 518 524 500 q 389 536 436 536 l 349 536 l 350 696 l 415 696 l 421 694 l 431 694 l 436 693 l 440 693 l 451 692 l 456 690 l 461 690 l 471 688 l 475 688 q 476 686 475 686 l 481 686 q 485 685 482 685 l 489 683 l 499 681 q 504 679 503 681 l 508 678 l 518 675 l 526 672 l 532 669 q 536 668 535 669 l 540 667 l 544 664 l 554 661 l 571 653 q 575 650 574 650 l 579 647 l 583 646 q 588 643 586 643 l 592 640 q 601 635 597 639 l 604 633 q 608 631 607 631 l 619 622 l 624 619 l 636 610 l 639 608 l 653 596 l 656 593 l 661 589 l 667 583 l 703 544 q 706 540 703 543 l 715 526 l 717 524 l 725 511 l 729 504 l 735 496 q 738 492 735 494 l 742 482 l 744 479 l 749 469 l 750 465 q 764 433 756 456 q 767 425 764 428 l 769 417 l 774 401 q 776 393 774 396 l 776 388 q 781 367 781 378 q 782 358 782 365 l 786 333 l 786 331 l 788 297 z "},"7":{"ha":822,"x_min":25,"x_max":778,"o":"m 25 804 q 79 1011 25 917 q 229 1161 133 1106 q 436 1215 324 1215 l 778 1215 l 778 0 l 613 0 l 613 1050 l 436 1050 q 342 1031 386 1050 q 263 978 297 1013 q 209 899 228 943 q 190 804 190 854 l 25 804 z "},"8":{"ha":843,"x_min":40,"x_max":814,"o":"m 814 925 q 770 744 814 829 q 650 604 726 660 q 761 467 721 549 q 801 294 801 386 l 801 0 l 40 0 l 40 294 q 84 474 40 389 q 204 614 128 558 q 93 751 133 669 q 53 925 53 833 l 53 1215 l 814 1215 l 814 925 m 585 757 q 636 835 618 792 q 654 926 654 879 l 654 1056 l 213 1056 l 213 926 q 231 835 213 879 q 283 757 249 792 q 433 696 349 696 q 488 703 463 696 q 585 757 543 717 m 642 161 l 642 292 q 624 383 642 339 q 572 461 606 426 q 475 515 531 501 q 421 522 450 522 q 271 461 332 522 q 218 383 236 426 q 200 292 200 339 l 200 161 l 642 161 z "},"9":{"ha":890,"x_min":35,"x_max":856,"o":"m 856 1215 l 856 0 l 690 0 l 690 1050 l 200 1050 q 231 871 200 956 q 319 722 263 786 q 619 594 439 594 l 619 429 q 320 512 454 429 q 110 738 186 594 q 35 1050 35 879 l 35 1215 l 856 1215 z "}," ":{"ha":451,"x_min":0,"x_max":0,"o":""},"A":{"ha":897,"x_min":38,"x_max":858,"o":"m 858 1215 l 858 0 l 693 0 l 693 447 l 203 315 l 203 0 l 38 0 l 38 640 q 81 862 38 757 q 206 1047 125 967 q 391 1172 286 1128 q 613 1215 496 1215 l 858 1215 m 693 1050 l 613 1050 q 407 995 501 1050 q 258 846 313 940 q 203 640 203 753 l 203 486 l 693 618 l 693 1050 z "},"B":{"ha":897,"x_min":49,"x_max":869,"o":"m 815 551 q 869 346 869 458 l 869 0 l 49 0 l 49 1215 l 404 1215 q 606 1163 511 1215 q 650 1133 633 1146 q 770 990 726 1075 q 815 808 814 906 q 767 618 814 704 q 815 551 797 585 m 704 346 q 658 492 704 428 l 650 501 l 633 519 q 515 586 583 569 q 460 592 494 592 l 460 757 q 632 719 549 757 q 649 808 649 764 q 631 901 649 857 q 578 978 613 944 q 499 1032 543 1013 q 404 1050 457 1050 l 214 1050 l 214 165 l 704 165 l 704 346 z "},"C":{"ha":897,"x_min":46,"x_max":867,"o":"m 211 165 l 867 165 l 867 0 l 46 0 l 46 594 q 129 905 46 761 q 356 1132 213 1049 q 667 1215 499 1215 l 867 1215 l 867 1050 l 667 1050 q 492 1015 576 1050 q 344 917 408 981 q 246 769 281 853 q 211 594 211 685 l 211 165 z "},"Ç":{"ha":897,"x_min":46,"x_max":867,"o":"m 211 165 l 867 165 l 867 0 l 46 0 l 46 594 q 129 905 46 761 q 356 1132 213 1049 q 667 1215 499 1215 l 867 1215 l 867 1050 l 667 1050 q 492 1015 576 1050 q 344 917 408 981 q 246 769 281 853 q 211 594 211 685 l 211 165 m 867 -112 l 867 -278 l 511 -278 l 511 -112 l 867 -112 z "},"D":{"ha":911,"x_min":49,"x_max":883,"o":"m 275 1215 q 578 1134 439 1215 q 801 913 718 1053 q 883 608 883 772 l 883 0 l 49 0 l 49 1215 l 275 1215 m 214 1050 l 214 165 l 718 165 l 718 608 q 685 778 718 697 q 589 921 651 858 q 445 1017 526 983 q 275 1050 364 1050 l 214 1050 z "},"E":{"ha":897,"x_min":51,"x_max":872,"o":"m 217 572 l 739 713 l 739 543 l 217 401 l 217 165 l 872 165 l 872 0 l 51 0 l 51 1215 l 872 1215 l 872 1050 l 217 1050 l 217 572 z "},"F":{"ha":897,"x_min":50,"x_max":871,"o":"m 215 572 l 738 713 l 738 543 l 215 401 l 215 0 l 50 0 l 50 1215 l 871 1215 l 871 1050 l 215 1050 l 215 572 z "},"G":{"ha":897,"x_min":38,"x_max":858,"o":"m 203 165 l 693 165 l 693 608 l 858 608 l 858 0 l 38 0 l 38 594 q 121 905 38 761 q 347 1132 204 1049 q 658 1215 490 1215 l 858 1215 l 858 1050 l 658 1050 q 484 1015 568 1050 q 336 917 400 981 q 238 769 272 853 q 203 594 203 685 l 203 165 z "},"Ğ":{"ha":897,"x_min":38,"x_max":858,"o":"m 858 1492 l 858 1326 l 503 1326 l 503 1492 l 858 1492 m 203 165 l 693 165 l 693 608 l 858 608 l 858 0 l 38 0 l 38 594 q 121 905 38 761 q 347 1132 204 1049 q 658 1215 490 1215 l 858 1215 l 858 1050 l 658 1050 q 484 1015 568 1050 q 336 917 400 981 q 238 769 272 853 q 203 594 203 685 l 203 165 z "},"H":{"ha":897,"x_min":39,"x_max":860,"o":"m 860 0 l 694 0 l 694 560 l 204 428 l 204 0 l 39 0 l 39 1215 l 204 1215 l 204 599 l 694 731 l 694 1215 l 860 1215 l 860 0 z "},"I":{"ha":243,"x_min":39,"x_max":206,"o":"m 206 1215 l 206 0 l 39 0 l 39 1215 l 206 1215 z "},"İ":{"ha":243,"x_min":39,"x_max":206,"o":"m 206 1492 l 206 1329 l 39 1329 l 39 1492 l 206 1492 m 206 1215 l 206 0 l 39 0 l 39 1215 l 206 1215 z "},"J":{"ha":692,"x_min":21,"x_max":636,"o":"m 636 615 q 554 308 636 449 q 331 83 472 167 q 21 0 189 0 l 21 164 q 195 198 113 164 q 340 296 278 232 q 438 442 404 360 q 472 615 472 525 l 472 1215 l 636 1215 l 636 615 z "},"K":{"ha":911,"x_min":65,"x_max":900,"o":"m 660 656 q 825 447 765 571 q 885 183 885 324 l 885 0 l 721 0 l 721 183 q 667 394 721 297 q 524 551 613 492 q 428 504 486 529 q 231 450 332 463 l 231 0 l 65 0 l 65 1215 l 231 1215 l 231 617 q 397 670 317 631 q 540 769 476 710 q 683 971 632 854 q 735 1215 735 1088 l 900 1215 q 841 919 900 1060 q 674 669 782 778 l 660 656 z "},"L":{"ha":897,"x_min":65,"x_max":886,"o":"m 886 411 q 831 204 886 299 q 682 56 776 110 q 476 0 589 0 l 65 0 l 65 1215 l 231 1215 l 231 165 l 476 165 q 570 184 525 165 q 650 238 615 203 q 703 317 685 272 q 721 411 721 361 l 886 411 z "},"M":{"ha":1444,"x_min":38,"x_max":1406,"o":"m 1406 0 l 1240 0 l 1240 1050 l 1050 1050 q 875 978 947 1050 q 822 899 840 943 q 804 804 804 854 l 804 425 l 639 394 l 639 804 q 620 899 639 854 q 567 978 601 943 q 488 1031 532 1013 q 393 1050 443 1050 l 203 1050 l 203 0 l 38 0 l 38 1215 l 393 1215 q 577 1172 492 1215 q 721 1051 663 1128 q 865 1172 779 1128 q 1050 1215 951 1215 l 1406 1215 l 1406 0 z "},"N":{"ha":897,"x_min":38,"x_max":858,"o":"m 858 0 l 693 0 l 693 804 q 675 899 693 854 q 622 978 657 943 q 542 1031 588 1013 q 449 1050 497 1050 l 203 1050 l 203 0 l 38 0 l 38 1215 l 449 1215 q 654 1160 560 1215 q 804 1011 749 1106 q 858 804 858 918 l 858 0 z "},"O":{"ha":875,"x_min":39,"x_max":836,"o":"m 438 1226 q 637 1173 544 1226 q 783 1028 729 1119 q 836 828 836 935 l 836 388 q 783 188 836 279 q 638 43 729 96 q 438 -11 546 -11 q 238 42 329 -11 q 93 188 146 96 q 39 388 39 279 l 39 828 q 92 1028 39 936 q 238 1174 146 1119 q 438 1226 331 1226 m 676 828 q 606 996 676 928 q 438 1067 538 1067 q 269 996 338 1067 q 199 828 199 928 l 199 388 q 269 219 199 288 q 438 149 338 149 q 606 219 538 149 q 676 388 676 288 l 676 828 z "},"Ö":{"ha":875,"x_min":39,"x_max":836,"o":"m 524 1492 l 524 1329 l 357 1329 l 357 1492 l 524 1492 m 438 1226 q 637 1173 544 1226 q 783 1028 729 1119 q 836 828 836 935 l 836 388 q 783 188 836 279 q 638 43 729 96 q 438 -11 546 -11 q 238 42 329 -11 q 93 188 146 96 q 39 388 39 279 l 39 828 q 92 1028 39 936 q 238 1174 146 1119 q 438 1226 331 1226 m 676 828 q 606 996 676 928 q 438 1067 538 1067 q 269 996 338 1067 q 199 828 199 928 l 199 388 q 269 219 199 288 q 438 149 338 149 q 606 219 538 149 q 676 388 676 288 l 676 828 z "},"P":{"ha":897,"x_min":57,"x_max":878,"o":"m 878 1050 q 803 738 878 879 q 594 513 728 596 q 293 429 461 429 l 293 594 q 593 722 474 594 q 682 870 651 786 q 713 1050 713 954 l 222 1050 l 222 0 l 57 0 l 57 1215 l 878 1215 l 878 1050 z "},"Q":{"ha":874,"x_min":39,"x_max":836,"o":"m 438 1226 q 637 1173 544 1226 q 783 1028 729 1119 q 836 828 836 935 l 836 388 q 783 188 836 279 q 638 43 729 96 q 438 -11 546 -11 q 238 42 329 -11 q 93 188 146 96 q 39 388 39 279 l 39 828 q 92 1028 39 936 q 238 1174 146 1119 q 438 1226 331 1226 m 438 149 q 526 165 483 149 q 601 214 568 182 l 438 257 l 438 424 l 674 360 l 676 388 l 676 828 q 606 996 676 928 q 438 1067 538 1067 q 269 996 338 1067 q 199 828 199 928 l 199 388 q 269 219 199 288 q 438 149 338 149 z "},"R":{"ha":915,"x_min":50,"x_max":889,"o":"m 889 0 l 725 0 l 725 117 q 692 286 725 204 q 596 432 658 368 q 535 483 576 451 q 286 561 421 561 l 286 726 q 532 674 411 726 q 586 722 557 692 q 675 870 644 786 q 706 1050 706 954 l 215 1050 l 215 0 l 50 0 l 50 1215 l 871 1215 l 871 1050 q 820 790 871 913 q 678 581 769 667 q 833 374 778 496 q 889 117 889 253 l 889 0 z "},"S":{"ha":913,"x_min":38,"x_max":874,"o":"m 217 771 l 694 642 l 854 601 l 854 392 q 853 371 854 375 l 853 361 l 851 356 l 851 346 q 850 336 850 344 q 849 332 849 335 q 847 326 849 328 l 846 317 q 844 313 846 314 l 844 311 q 843 307 844 308 l 843 303 q 842 297 842 301 l 839 288 l 836 279 l 833 269 l 829 260 l 826 251 l 824 247 l 822 242 l 810 217 l 808 213 l 806 207 l 803 203 l 801 199 q 799 194 799 196 q 793 186 794 190 l 790 183 l 789 179 l 781 167 q 778 163 778 164 l 768 151 l 765 149 q 754 135 764 144 l 751 132 l 747 126 l 740 121 q 701 85 735 113 l 699 82 q 690 76 694 81 l 685 72 l 682 71 l 669 63 l 663 58 q 654 53 658 54 l 650 50 q 640 44 643 47 q 636 43 638 44 l 628 39 l 624 38 q 592 24 614 32 l 583 21 l 574 18 l 560 14 l 556 13 l 550 11 q 546 10 547 11 l 525 6 q 517 4 518 6 l 492 1 l 489 1 q 456 0 482 0 l 38 0 l 38 160 l 456 160 q 624 231 556 160 q 694 399 694 299 l 694 476 l 111 633 l 57 647 l 57 818 q 110 1017 57 925 q 257 1163 164 1108 q 456 1215 347 1215 l 874 1215 l 874 1056 l 456 1056 q 288 985 356 1056 q 217 817 217 917 l 217 771 z "},"Ş":{"ha":913,"x_min":38,"x_max":874,"o":"m 217 771 l 694 642 l 854 601 l 854 392 q 853 371 854 375 l 853 361 l 851 356 l 851 346 q 850 336 850 344 q 849 332 849 335 q 847 326 849 328 l 846 317 q 844 313 846 314 l 844 311 q 843 307 844 308 l 843 303 q 842 297 842 301 l 839 288 l 836 279 l 833 269 l 829 260 l 826 251 l 824 247 l 822 242 l 810 217 l 808 213 l 806 207 l 803 203 l 801 199 q 799 194 799 196 q 793 186 794 190 l 790 183 l 789 179 l 781 167 q 778 163 778 164 l 768 151 l 765 149 q 754 135 764 144 l 751 132 l 747 126 l 740 121 q 701 85 735 113 l 699 82 q 690 76 694 81 l 685 72 l 682 71 l 669 63 l 663 58 q 654 53 658 54 l 650 50 q 640 44 643 47 q 636 43 638 44 l 628 39 l 624 38 q 592 24 614 32 l 583 21 l 574 18 l 560 14 l 556 13 l 550 11 q 546 10 547 11 l 525 6 q 517 4 518 6 l 492 1 l 489 1 q 456 0 482 0 l 38 0 l 38 160 l 456 160 q 624 231 556 160 q 694 399 694 299 l 694 476 l 111 633 l 57 647 l 57 818 q 110 1017 57 925 q 257 1163 164 1108 q 456 1215 347 1215 l 874 1215 l 874 1056 l 456 1056 q 288 985 356 1056 q 217 817 217 917 l 217 771 m 597 -112 l 597 -278 l 242 -278 l 242 -112 l 597 -112 z "},"T":{"ha":894,"x_min":38,"x_max":857,"o":"m 857 1050 l 529 1050 l 529 0 l 364 0 l 364 1050 l 38 1050 l 38 1215 l 857 1215 l 857 1050 z "},"U":{"ha":897,"x_min":38,"x_max":858,"o":"m 858 0 l 449 0 q 242 55 336 0 q 93 204 147 110 q 38 411 38 297 l 38 1215 l 203 1215 l 203 411 q 222 317 203 361 q 275 238 240 272 q 354 184 310 203 q 449 165 399 165 l 693 165 l 693 1215 l 858 1215 l 858 0 z "},"Ü":{"ha":897,"x_min":38,"x_max":858,"o":"m 524 1492 l 524 1329 l 357 1329 l 357 1492 l 524 1492 m 858 0 l 449 0 q 242 55 336 0 q 93 204 147 110 q 38 411 38 297 l 38 1215 l 203 1215 l 203 411 q 222 317 203 361 q 275 238 240 272 q 354 184 310 203 q 449 165 399 165 l 693 165 l 693 1215 l 858 1215 l 858 0 z "},"V":{"ha":897,"x_min":38,"x_max":858,"o":"m 858 575 q 814 353 858 460 q 690 168 769 247 q 507 46 607 85 q 283 0 401 0 l 38 0 l 38 1215 l 203 1215 l 203 165 l 283 165 q 489 220 394 165 q 639 369 583 275 q 693 575 693 464 l 693 1215 l 858 1215 l 858 575 z "},"W":{"ha":1444,"x_min":38,"x_max":1406,"o":"m 1406 0 l 1050 0 q 865 44 951 0 q 721 164 779 88 q 577 44 663 88 q 393 0 492 0 l 38 0 l 38 1215 l 203 1215 l 203 165 l 393 165 q 488 184 443 165 q 567 238 532 203 q 620 317 601 272 q 639 411 639 361 l 639 790 l 804 821 l 804 411 q 822 317 804 361 q 875 238 840 272 q 1050 165 947 165 l 1240 165 l 1240 1215 l 1406 1215 l 1406 0 z "},"X":{"ha":897,"x_min":38,"x_max":858,"o":"m 692 594 q 815 451 771 538 q 858 264 858 364 l 858 0 l 693 0 l 693 264 q 675 358 693 313 q 622 438 657 403 q 449 510 546 510 q 354 491 399 510 q 275 438 310 472 q 222 358 240 403 q 203 264 203 314 l 203 0 l 38 0 l 38 264 q 82 449 38 363 q 206 594 126 536 q 82 740 126 653 q 38 925 38 826 l 38 1215 l 203 1215 l 203 925 q 222 831 203 876 q 275 751 240 786 q 354 699 310 717 q 449 681 399 681 q 622 751 547 681 q 693 925 693 826 l 693 1215 l 858 1215 l 858 925 q 815 738 858 825 q 692 594 771 651 z "},"Y":{"ha":886,"x_min":38,"x_max":847,"o":"m 847 406 q 793 203 847 297 q 646 56 739 110 q 443 0 553 0 l 240 0 l 240 163 l 443 163 q 614 233 543 163 q 667 313 649 268 q 685 406 685 357 l 685 508 l 443 508 q 241 563 335 508 q 93 710 147 617 q 38 914 38 803 l 38 1215 l 200 1215 l 200 914 q 218 821 200 865 q 271 742 236 776 q 350 689 306 707 q 443 671 394 671 l 685 671 l 685 1215 l 847 1215 l 847 406 z "},"Z":{"ha":921,"x_min":40,"x_max":864,"o":"m 863 1050 q 785 818 858 925 q 715 727 758 778 q 571 568 671 676 l 547 543 q 367 344 429 417 q 263 215 304 272 q 233 165 246 190 l 863 165 l 863 0 l 42 0 l 42 13 q 40 36 40 18 q 61 172 40 101 q 128 310 82 243 q 231 439 171 371 q 424 651 290 507 q 649 911 603 846 q 697 1050 693 979 l 65 1050 l 65 1215 l 863 1215 l 863 1085 q 864 1069 864 1082 q 863 1054 864 1058 l 863 1050 z "},"a":{"ha":896,"x_min":28,"x_max":847,"o":"m 847 819 l 847 0 l 429 0 q 228 58 321 3 q 82 207 136 114 q 28 410 28 301 q 83 615 28 521 q 232 765 138 710 q 438 819 326 819 q 569 799 506 819 q 683 739 632 778 l 683 819 l 847 819 m 683 410 q 665 503 683 458 q 611 583 646 549 q 531 637 576 618 q 438 656 486 656 q 264 583 340 656 q 211 503 229 549 q 193 410 193 458 q 264 236 193 311 q 438 165 339 165 l 683 165 l 683 410 z "},"b":{"ha":893,"x_min":49,"x_max":865,"o":"m 457 817 q 662 763 568 817 q 811 614 756 708 q 865 408 865 521 q 811 203 865 297 q 663 56 757 110 q 457 0 569 0 l 49 0 l 49 1215 l 213 1215 l 213 735 q 327 795 264 774 q 457 817 390 817 m 629 236 q 683 315 664 271 q 701 408 701 360 q 683 501 701 457 q 629 581 664 546 q 550 634 594 615 q 457 653 506 653 q 364 634 408 653 q 285 581 319 615 q 231 501 250 546 q 213 408 213 457 l 213 164 l 457 164 q 550 183 506 164 q 629 236 594 201 z "},"c":{"ha":896,"x_min":42,"x_max":861,"o":"m 861 165 l 861 0 l 443 0 q 243 61 336 3 q 96 215 150 119 q 42 421 42 311 q 97 626 42 532 q 246 776 151 721 q 451 831 340 831 q 657 776 563 831 q 807 626 751 721 q 861 421 861 533 l 697 421 q 678 515 697 469 q 625 594 660 560 q 545 648 590 629 q 451 667 500 667 q 278 594 354 667 q 225 515 243 560 q 207 421 207 469 q 226 320 207 371 q 278 236 244 269 q 451 165 353 165 l 861 165 z "},"ç":{"ha":896,"x_min":42,"x_max":861,"o":"m 861 165 l 861 0 l 443 0 q 243 61 336 3 q 96 215 150 119 q 42 421 42 311 q 97 626 42 532 q 246 776 151 721 q 451 831 340 831 q 657 776 563 831 q 807 626 751 721 q 861 421 861 533 l 697 421 q 678 515 697 469 q 625 594 660 560 q 545 648 590 629 q 451 667 500 667 q 278 594 354 667 q 225 515 243 560 q 207 421 207 469 q 226 320 207 371 q 278 236 244 269 q 451 165 353 165 l 861 165 m 672 -112 l 672 -278 l 317 -278 l 317 -112 l 672 -112 z "},"d":{"ha":893,"x_min":29,"x_max":846,"o":"m 846 1215 l 846 0 l 428 0 q 229 60 321 3 q 83 215 138 118 q 29 419 29 310 q 84 624 29 531 q 233 774 139 718 q 438 828 328 828 q 567 806 504 828 q 682 746 631 785 l 682 1215 l 846 1215 m 682 164 l 682 419 q 663 513 682 468 q 610 592 644 557 q 531 645 575 626 q 438 664 486 664 q 344 645 389 664 q 265 592 300 626 q 212 513 231 557 q 193 419 193 468 q 213 319 193 368 q 265 236 232 269 q 344 183 300 201 q 438 164 389 164 l 682 164 z "},"e":{"ha":856,"x_min":17,"x_max":838,"o":"m 667 478 q 611 584 651 540 q 521 649 571 628 q 428 667 479 667 q 333 648 378 667 q 254 594 289 629 q 201 515 219 560 q 182 421 182 471 q 201 319 182 369 q 254 236 221 269 q 333 183 289 201 q 428 165 378 165 l 838 165 l 838 0 l 428 0 q 223 58 318 0 q 72 213 128 115 q 17 421 17 310 q 72 626 17 532 q 222 776 126 721 q 428 831 317 831 q 626 779 535 831 q 775 639 718 728 q 836 443 829 551 q 838 421 838 439 l 838 313 l 418 313 l 418 478 l 667 478 z "},"f":{"ha":485,"x_min":54,"x_max":463,"o":"m 218 167 l 463 167 l 463 3 l 218 3 l 218 -389 l 54 -389 l 54 453 q 109 658 54 564 q 258 807 164 751 q 463 861 351 861 l 463 697 q 369 679 414 697 q 290 626 325 661 q 218 453 218 550 l 218 167 z "},"g":{"ha":894,"x_min":26,"x_max":844,"o":"m 844 21 q 843 3 844 7 q 783 -194 839 -104 q 636 -336 728 -283 q 435 -389 542 -389 l 435 -224 q 528 -206 483 -224 q 608 -153 574 -187 q 679 21 679 -78 l 679 83 q 435 3 574 3 q 230 58 324 3 q 82 207 136 113 q 26 411 26 300 q 51 550 26 483 q 119 671 75 617 q 256 778 175 739 q 426 819 336 818 l 844 819 l 844 21 m 653 300 q 679 411 679 351 l 679 656 l 435 656 q 330 633 379 656 q 246 567 281 610 q 190 411 190 499 q 209 318 190 363 q 263 239 228 274 q 342 185 297 204 q 435 167 386 167 q 568 206 511 167 q 653 300 625 244 z "},"ğ":{"ha":894,"x_min":26,"x_max":844,"o":"m 844 1111 l 844 946 l 489 946 l 489 1111 l 844 1111 m 844 21 q 843 3 844 7 q 783 -194 839 -104 q 636 -336 728 -283 q 435 -389 542 -389 l 435 -224 q 528 -206 483 -224 q 608 -153 574 -187 q 679 21 679 -78 l 679 83 q 435 3 574 3 q 230 58 324 3 q 82 207 136 113 q 26 411 26 300 q 51 550 26 483 q 119 671 75 617 q 256 778 175 739 q 426 819 336 818 l 844 819 l 844 21 m 653 300 q 679 411 679 351 l 679 656 l 435 656 q 330 633 379 656 q 246 567 281 610 q 190 411 190 499 q 209 318 190 363 q 263 239 228 274 q 342 185 297 204 q 435 167 386 167 q 568 206 511 167 q 653 300 625 244 z "},"h":{"ha":893,"x_min":36,"x_max":853,"o":"m 853 1 l 689 1 l 689 419 q 670 513 689 468 q 617 592 651 557 q 538 645 582 626 q 444 664 493 664 q 351 645 396 664 q 272 592 307 626 q 219 513 238 557 q 200 419 200 468 l 200 0 l 36 0 l 36 1215 l 200 1215 l 200 747 q 444 828 311 828 q 649 774 556 828 q 799 625 743 719 q 853 419 853 532 l 853 1 z "},"i":{"ha":233,"x_min":35,"x_max":199,"o":"m 35 1051 l 199 1051 l 199 1215 l 35 1215 l 35 1051 m 35 819 l 199 819 l 199 0 l 35 0 l 35 819 z "},"ı":{"ha":233,"x_min":35,"x_max":199,"o":"m 35 819 l 199 819 l 199 0 l 35 0 l 35 819 z "},"j":{"ha":465,"x_min":0,"x_max":396,"o":"m 396 118 q 344 -80 396 11 q 200 -224 292 -171 q 0 -278 108 -278 l 0 -114 q 90 -96 47 -114 q 164 -46 132 -78 q 215 30 197 -12 q 232 118 232 72 l 232 819 l 396 819 l 396 118 z "},"k":{"ha":886,"x_min":58,"x_max":875,"o":"m 875 1 l 711 1 l 711 163 q 692 256 711 211 q 639 335 674 300 q 560 388 604 369 q 467 407 515 407 l 332 407 l 222 406 l 222 0 l 58 0 l 58 1215 l 222 1215 l 222 571 l 332 571 q 425 589 381 571 q 504 642 469 607 q 558 722 539 676 q 576 815 576 767 l 740 815 q 712 665 740 736 q 631 536 683 593 q 808 388 740 489 q 875 163 875 286 l 875 1 z "},"l":{"ha":236,"x_min":35,"x_max":201,"o":"m 35 1215 l 201 1215 l 201 0 l 35 0 l 35 1215 z "},"m":{"ha":1126,"x_min":35,"x_max":1092,"o":"m 1092 1 l 926 1 l 926 410 q 908 504 926 460 q 854 583 889 549 q 774 637 819 618 q 681 656 729 656 l 640 656 l 640 1 l 476 1 l 476 656 l 200 656 l 200 0 l 35 0 l 35 819 l 681 819 q 886 765 792 819 q 1036 615 981 710 q 1092 410 1092 522 l 1092 1 z "},"n":{"ha":888,"x_min":35,"x_max":853,"o":"m 853 0 l 688 0 l 688 410 q 669 503 688 458 q 615 583 650 549 q 536 637 581 618 q 442 656 492 656 l 200 656 l 200 0 l 35 0 l 35 819 l 442 819 q 649 765 554 819 q 799 615 743 711 q 853 410 853 522 l 853 0 z "},"o":{"ha":861,"x_min":21,"x_max":840,"o":"m 432 831 q 637 775 543 831 q 786 624 731 719 q 840 411 840 526 l 840 410 q 786 199 840 294 q 638 46 732 103 q 431 -11 543 -11 q 225 44 319 -11 q 76 197 131 100 q 21 410 21 292 l 21 411 q 75 623 21 526 q 225 775 129 719 q 432 831 318 831 m 607 222 q 681 410 681 296 q 607 597 681 524 q 431 671 533 671 q 254 597 328 671 q 182 410 182 525 q 254 222 182 294 q 335 169 289 188 q 431 150 381 150 q 526 169 481 150 q 607 222 572 188 z "},"ö":{"ha":861,"x_min":21,"x_max":840,"o":"m 522 1111 l 522 946 l 343 946 l 343 1111 l 522 1111 m 432 831 q 637 775 543 831 q 786 624 731 719 q 840 411 840 526 l 840 410 q 786 199 840 294 q 638 46 732 103 q 431 -11 543 -11 q 225 44 319 -11 q 76 197 131 100 q 21 410 21 292 l 21 411 q 75 623 21 526 q 225 775 129 719 q 432 831 318 831 m 607 222 q 681 410 681 296 q 607 597 681 524 q 431 671 533 671 q 254 597 328 671 q 182 410 182 525 q 254 222 182 294 q 335 169 289 188 q 431 150 381 150 q 526 169 481 150 q 607 222 572 188 z "},"p":{"ha":886,"x_min":36,"x_max":853,"o":"m 36 -389 l 36 819 l 454 819 q 653 761 561 817 q 800 614 746 706 q 853 411 853 519 q 799 206 853 300 q 650 58 744 113 q 444 3 557 3 q 200 83 306 3 l 200 -389 l 36 -389 m 200 656 l 200 411 q 219 317 200 363 q 272 238 238 272 q 351 185 307 203 q 444 167 396 167 q 538 185 493 167 q 617 238 582 203 q 689 411 689 314 q 670 504 689 460 q 617 583 651 549 q 538 637 582 618 q 444 656 493 656 l 200 656 z "},"q":{"ha":886,"x_min":31,"x_max":847,"o":"m 683 -389 l 683 85 q 569 24 632 46 q 439 3 506 3 q 234 58 328 3 q 86 207 140 113 q 31 411 31 300 q 84 613 31 519 q 229 761 138 706 q 429 819 321 818 l 847 819 l 847 -389 l 683 -389 m 439 656 q 346 637 390 656 q 267 583 301 618 q 213 504 232 549 q 194 411 194 460 q 213 318 194 363 q 267 239 232 274 q 346 185 301 204 q 439 167 390 167 q 532 185 488 167 q 611 239 576 204 q 665 318 646 274 q 683 411 683 363 l 683 656 l 439 656 z "},"r":{"ha":686,"x_min":47,"x_max":664,"o":"m 664 656 l 457 656 q 283 583 360 656 q 231 503 249 549 q 213 410 213 458 l 213 0 l 47 0 l 47 419 q 106 620 50 528 q 254 767 161 713 q 457 819 349 819 l 664 819 l 664 656 z "},"s":{"ha":889,"x_min":33,"x_max":853,"o":"m 853 390 q 793 195 849 285 q 644 53 738 106 q 443 0 550 0 l 236 0 l 236 165 l 443 165 q 537 183 492 165 q 617 236 582 201 q 674 326 657 276 l 33 326 l 33 413 q 89 616 33 522 q 239 765 144 710 q 443 819 332 819 l 650 819 l 650 656 l 443 656 q 269 583 346 656 q 211 490 229 543 l 853 490 l 853 390 z "},"ş":{"ha":889,"x_min":33,"x_max":853,"o":"m 853 390 q 793 195 849 285 q 644 53 738 106 q 443 0 550 0 l 236 0 l 236 165 l 443 165 q 537 183 492 165 q 617 236 582 201 q 674 326 657 276 l 33 326 l 33 413 q 89 616 33 522 q 239 765 144 710 q 443 819 332 819 l 650 819 l 650 656 l 443 656 q 269 583 346 656 q 211 490 229 543 l 853 490 l 853 390 m 592 -112 l 592 -278 l 236 -278 l 236 -112 l 592 -112 z "},"t":{"ha":478,"x_min":26,"x_max":435,"o":"m 190 408 q 209 315 190 360 q 263 236 228 271 q 342 183 297 201 q 435 164 386 164 l 435 0 q 230 55 324 0 q 82 204 136 110 q 26 408 26 297 l 26 1215 l 190 1215 l 190 818 l 435 818 l 435 653 l 190 653 l 190 408 z "},"u":{"ha":888,"x_min":35,"x_max":853,"o":"m 35 819 l 200 819 l 200 411 q 219 317 200 361 q 272 238 238 272 q 351 184 307 203 q 446 165 396 165 l 688 165 l 688 819 l 853 819 l 853 0 l 446 0 q 239 55 333 0 q 90 204 144 110 q 35 411 35 297 l 35 819 z "},"ü":{"ha":888,"x_min":35,"x_max":853,"o":"m 536 1111 l 536 946 l 357 946 l 357 1111 l 536 1111 m 35 819 l 200 819 l 200 411 q 219 317 200 361 q 272 238 238 272 q 351 184 307 203 q 446 165 396 165 l 688 165 l 688 819 l 853 819 l 853 0 l 446 0 q 239 55 333 0 q 90 204 144 110 q 35 411 35 297 l 35 819 z "},"v":{"ha":888,"x_min":35,"x_max":853,"o":"m 853 411 q 798 204 853 299 q 649 56 743 110 q 442 0 556 0 l 35 0 l 35 819 l 200 819 l 200 165 l 442 165 q 536 184 492 165 q 615 238 581 203 q 669 317 650 272 q 688 411 688 361 l 688 819 l 853 819 l 853 411 z "},"w":{"ha":1126,"x_min":36,"x_max":1093,"o":"m 1093 410 q 1038 204 1093 299 q 888 56 983 110 q 682 0 794 0 l 36 0 l 36 819 l 201 819 l 201 165 l 478 165 l 478 818 l 642 818 l 642 165 l 682 165 q 776 183 731 165 q 856 236 821 201 q 909 316 890 271 q 928 410 928 361 l 928 818 l 1093 818 l 1093 410 z "},"x":{"ha":892,"x_min":35,"x_max":857,"o":"m 857 0 l 692 0 l 692 161 q 673 256 692 211 q 619 335 654 300 q 540 388 585 369 q 446 407 496 407 q 351 388 396 407 q 272 335 307 369 q 219 256 238 300 q 200 161 200 211 l 200 0 l 35 0 l 35 161 q 79 347 35 260 q 203 493 124 435 q 95 635 133 550 q 57 819 57 721 l 222 819 q 244 706 222 758 q 308 619 267 654 q 444 572 365 572 l 447 572 q 572 610 521 572 q 647 707 622 649 q 669 819 669 757 l 835 819 q 796 637 835 722 q 689 493 757 551 q 813 347 768 435 q 857 161 857 260 l 857 0 z "},"y":{"ha":886,"x_min":33,"x_max":850,"o":"m 850 -389 l 686 -389 l 686 83 q 442 3 581 3 q 237 58 331 3 q 89 207 143 113 q 33 411 33 300 l 33 819 l 197 819 l 197 411 q 216 317 197 363 q 269 238 235 272 q 349 185 304 203 q 442 167 393 167 q 535 185 490 167 q 614 238 579 203 q 686 411 686 314 l 686 819 l 850 819 l 850 -389 z "},"z":{"ha":889,"x_min":40,"x_max":860,"o":"m 682 490 q 628 579 665 540 q 544 638 590 618 q 450 656 500 656 l 40 656 l 40 819 l 450 819 q 656 765 561 819 q 806 617 750 710 q 860 413 860 524 l 860 326 l 219 326 q 274 240 236 278 q 357 183 311 201 q 450 165 399 165 l 860 165 l 860 0 l 450 0 q 251 52 343 0 q 103 194 160 104 q 40 390 47 283 l 40 490 l 682 490 z "},":":{"ha":239,"x_min":33,"x_max":203,"o":"m 203 457 l 203 293 l 33 293 l 33 457 l 203 457 m 33 165 l 203 165 l 203 0 l 33 0 l 33 165 z "},",":{"ha":367,"x_min":32,"x_max":329,"o":"m 329 164 l 329 33 q 242 -192 322 -93 q 32 -343 161 -290 l 32 -169 q 121 -105 82 -147 q 174 0 160 -62 l 32 0 l 32 164 l 329 164 z "},"!":{"ha":239,"x_min":35,"x_max":204,"o":"m 204 1217 l 204 293 l 35 293 l 35 1217 l 204 1217 m 35 165 l 204 165 l 204 0 l 35 0 l 35 165 z "},".":{"ha":806,"x_min":35,"x_max":771,"o":"m 35 0 l 35 165 l 771 165 l 771 0 l 35 0 z "},"?":{"ha":893,"x_min":32,"x_max":856,"o":"m 856 1051 q 826 912 851 974 q 763 801 800 850 q 660 676 726 751 l 658 676 q 586 597 631 643 q 440 293 440 421 l 272 293 q 338 528 272 413 q 528 775 404 644 l 554 804 q 608 866 593 847 q 640 913 622 885 q 690 1051 685 975 l 429 1051 q 263 988 325 1050 q 210 909 228 953 q 192 818 192 865 l 32 819 q 85 1018 32 926 q 232 1164 139 1110 q 431 1217 322 1217 l 856 1217 l 856 1051 m 272 165 l 436 165 l 436 0 l 272 0 l 272 165 z "},"'":{"ha":367,"x_min":36,"x_max":333,"o":"m 333 1215 l 333 1085 q 246 860 326 958 q 36 708 165 761 l 36 882 q 125 946 86 904 q 178 1050 164 988 l 36 1050 l 36 1215 l 333 1215 z "},"-":{"ha":681,"x_min":69,"x_max":611,"o":"m 69 319 l 69 485 l 611 485 l 611 319 l 69 319 z "}," ":{"ha":451,"x_min":0,"x_max":0,"o":""},"\r":{"ha":451,"x_min":0,"x_max":0,"o":""}}}
